<mxfile host="app.diagrams.net" modified="2024-01-23T21:23:32.803Z" agent="Mozilla/5.0 (Windows NT 10.0; Win64; x64) AppleWebKit/537.36 (KHTML, like Gecko) Chrome/120.0.0.0 Safari/537.36" etag="YaePGCPW7BdSIfJXvSjZ" version="22.1.22" type="device">
  <diagram id="JIO4U5yVURzNJD8ckPtT" name="Page-1">
    <mxGraphModel dx="882" dy="578" grid="1" gridSize="10" guides="1" tooltips="1" connect="1" arrows="1" fold="1" page="1" pageScale="1" pageWidth="850" pageHeight="1100" math="0" shadow="0">
      <root>
        <mxCell id="0" />
        <mxCell id="1" parent="0" />
        <mxCell id="jVAOY2Lbpxn42im7dIGs-4" style="edgeStyle=orthogonalEdgeStyle;rounded=0;orthogonalLoop=1;jettySize=auto;html=1;exitX=1;exitY=0.5;exitDx=0;exitDy=0;entryX=0;entryY=0.25;entryDx=0;entryDy=0;" edge="1" parent="1" source="QQ5iUyurzTZGA6GbT3NC-1" target="jVAOY2Lbpxn42im7dIGs-1">
          <mxGeometry relative="1" as="geometry" />
        </mxCell>
        <mxCell id="QQ5iUyurzTZGA6GbT3NC-1" value="Video corpus" style="rounded=1;whiteSpace=wrap;html=1;" parent="1" vertex="1">
          <mxGeometry x="40" y="440" width="120" height="60" as="geometry" />
        </mxCell>
        <mxCell id="QQ5iUyurzTZGA6GbT3NC-10" style="edgeStyle=orthogonalEdgeStyle;rounded=0;orthogonalLoop=1;jettySize=auto;html=1;exitX=1;exitY=0.5;exitDx=0;exitDy=0;entryX=0;entryY=0.5;entryDx=0;entryDy=0;" parent="1" source="QQ5iUyurzTZGA6GbT3NC-3" target="QQ5iUyurzTZGA6GbT3NC-4" edge="1">
          <mxGeometry relative="1" as="geometry" />
        </mxCell>
        <mxCell id="QQ5iUyurzTZGA6GbT3NC-20" style="edgeStyle=orthogonalEdgeStyle;rounded=0;orthogonalLoop=1;jettySize=auto;html=1;exitX=0.5;exitY=0;exitDx=0;exitDy=0;entryX=1;entryY=0.5;entryDx=0;entryDy=0;" parent="1" source="QQ5iUyurzTZGA6GbT3NC-3" target="QQ5iUyurzTZGA6GbT3NC-5" edge="1">
          <mxGeometry relative="1" as="geometry" />
        </mxCell>
        <mxCell id="QQ5iUyurzTZGA6GbT3NC-46" style="edgeStyle=orthogonalEdgeStyle;rounded=0;orthogonalLoop=1;jettySize=auto;html=1;exitX=0.5;exitY=1;exitDx=0;exitDy=0;entryX=0.5;entryY=0;entryDx=0;entryDy=0;" parent="1" source="QQ5iUyurzTZGA6GbT3NC-3" target="QQ5iUyurzTZGA6GbT3NC-11" edge="1">
          <mxGeometry relative="1" as="geometry" />
        </mxCell>
        <mxCell id="QQ5iUyurzTZGA6GbT3NC-3" value="Ranking" style="rounded=1;whiteSpace=wrap;html=1;" parent="1" vertex="1">
          <mxGeometry x="480" y="440" width="120" height="60" as="geometry" />
        </mxCell>
        <mxCell id="QQ5iUyurzTZGA6GbT3NC-28" style="edgeStyle=orthogonalEdgeStyle;rounded=0;orthogonalLoop=1;jettySize=auto;html=1;exitX=0.5;exitY=1;exitDx=0;exitDy=0;entryX=0.5;entryY=0;entryDx=0;entryDy=0;" parent="1" source="QQ5iUyurzTZGA6GbT3NC-4" target="QQ5iUyurzTZGA6GbT3NC-14" edge="1">
          <mxGeometry relative="1" as="geometry" />
        </mxCell>
        <mxCell id="QQ5iUyurzTZGA6GbT3NC-4" value="Re-ranking" style="rounded=1;whiteSpace=wrap;html=1;" parent="1" vertex="1">
          <mxGeometry x="680" y="440" width="120" height="60" as="geometry" />
        </mxCell>
        <mxCell id="QQ5iUyurzTZGA6GbT3NC-19" style="edgeStyle=orthogonalEdgeStyle;rounded=0;orthogonalLoop=1;jettySize=auto;html=1;exitX=1;exitY=0.5;exitDx=0;exitDy=0;" parent="1" source="QQ5iUyurzTZGA6GbT3NC-5" target="QQ5iUyurzTZGA6GbT3NC-3" edge="1">
          <mxGeometry relative="1" as="geometry" />
        </mxCell>
        <mxCell id="QQ5iUyurzTZGA6GbT3NC-5" value="User features" style="rounded=1;whiteSpace=wrap;html=1;" parent="1" vertex="1">
          <mxGeometry x="360" y="280" width="120" height="60" as="geometry" />
        </mxCell>
        <mxCell id="QQ5iUyurzTZGA6GbT3NC-15" style="edgeStyle=orthogonalEdgeStyle;rounded=0;orthogonalLoop=1;jettySize=auto;html=1;exitX=0.5;exitY=1;exitDx=0;exitDy=0;entryX=0.5;entryY=0;entryDx=0;entryDy=0;" parent="1" source="QQ5iUyurzTZGA6GbT3NC-6" target="QQ5iUyurzTZGA6GbT3NC-7" edge="1">
          <mxGeometry relative="1" as="geometry" />
        </mxCell>
        <mxCell id="QQ5iUyurzTZGA6GbT3NC-6" value="User" style="rounded=1;whiteSpace=wrap;html=1;" parent="1" vertex="1">
          <mxGeometry x="360" y="40" width="120" height="60" as="geometry" />
        </mxCell>
        <mxCell id="QQ5iUyurzTZGA6GbT3NC-16" style="edgeStyle=orthogonalEdgeStyle;rounded=0;orthogonalLoop=1;jettySize=auto;html=1;exitX=0.5;exitY=1;exitDx=0;exitDy=0;entryX=0.5;entryY=0;entryDx=0;entryDy=0;" parent="1" source="QQ5iUyurzTZGA6GbT3NC-7" target="QQ5iUyurzTZGA6GbT3NC-5" edge="1">
          <mxGeometry relative="1" as="geometry" />
        </mxCell>
        <mxCell id="QQ5iUyurzTZGA6GbT3NC-7" value="Feature preparation" style="rounded=1;whiteSpace=wrap;html=1;" parent="1" vertex="1">
          <mxGeometry x="360" y="160" width="120" height="60" as="geometry" />
        </mxCell>
        <mxCell id="QQ5iUyurzTZGA6GbT3NC-45" style="edgeStyle=orthogonalEdgeStyle;rounded=0;orthogonalLoop=1;jettySize=auto;html=1;exitX=0.5;exitY=0;exitDx=0;exitDy=0;entryX=0.5;entryY=1;entryDx=0;entryDy=0;" parent="1" source="QQ5iUyurzTZGA6GbT3NC-11" target="QQ5iUyurzTZGA6GbT3NC-3" edge="1">
          <mxGeometry relative="1" as="geometry" />
        </mxCell>
        <mxCell id="QQ5iUyurzTZGA6GbT3NC-11" value="Video feature store" style="rounded=1;whiteSpace=wrap;html=1;" parent="1" vertex="1">
          <mxGeometry x="480" y="560" width="120" height="60" as="geometry" />
        </mxCell>
        <mxCell id="QQ5iUyurzTZGA6GbT3NC-14" value="Top k videos" style="rounded=1;whiteSpace=wrap;html=1;" parent="1" vertex="1">
          <mxGeometry x="680" y="560" width="120" height="60" as="geometry" />
        </mxCell>
        <mxCell id="QQ5iUyurzTZGA6GbT3NC-21" value="billions" style="text;html=1;strokeColor=none;fillColor=none;align=center;verticalAlign=middle;whiteSpace=wrap;rounded=0;" parent="1" vertex="1">
          <mxGeometry x="160" y="440" width="80" height="30" as="geometry" />
        </mxCell>
        <mxCell id="QQ5iUyurzTZGA6GbT3NC-24" value="thousands" style="text;html=1;strokeColor=none;fillColor=none;align=center;verticalAlign=middle;whiteSpace=wrap;rounded=0;" parent="1" vertex="1">
          <mxGeometry x="400" y="440" width="80" height="30" as="geometry" />
        </mxCell>
        <mxCell id="QQ5iUyurzTZGA6GbT3NC-26" value="hundreds" style="text;html=1;strokeColor=none;fillColor=none;align=center;verticalAlign=middle;whiteSpace=wrap;rounded=0;" parent="1" vertex="1">
          <mxGeometry x="600" y="440" width="80" height="30" as="geometry" />
        </mxCell>
        <mxCell id="QQ5iUyurzTZGA6GbT3NC-27" value="dozens" style="text;html=1;strokeColor=none;fillColor=none;align=center;verticalAlign=middle;whiteSpace=wrap;rounded=0;" parent="1" vertex="1">
          <mxGeometry x="760" y="520" width="80" height="30" as="geometry" />
        </mxCell>
        <mxCell id="jVAOY2Lbpxn42im7dIGs-5" style="edgeStyle=orthogonalEdgeStyle;rounded=0;orthogonalLoop=1;jettySize=auto;html=1;exitX=0.5;exitY=0;exitDx=0;exitDy=0;entryX=0.5;entryY=1;entryDx=0;entryDy=0;" edge="1" parent="1" source="QQ5iUyurzTZGA6GbT3NC-40" target="jVAOY2Lbpxn42im7dIGs-1">
          <mxGeometry relative="1" as="geometry" />
        </mxCell>
        <mxCell id="QQ5iUyurzTZGA6GbT3NC-40" value="ANN service" style="rounded=1;whiteSpace=wrap;html=1;" parent="1" vertex="1">
          <mxGeometry x="240" y="720" width="120" height="60" as="geometry" />
        </mxCell>
        <mxCell id="jVAOY2Lbpxn42im7dIGs-6" style="edgeStyle=orthogonalEdgeStyle;rounded=0;orthogonalLoop=1;jettySize=auto;html=1;exitX=0.5;exitY=0;exitDx=0;exitDy=0;entryX=0.5;entryY=1;entryDx=0;entryDy=0;" edge="1" parent="1" source="QQ5iUyurzTZGA6GbT3NC-42" target="QQ5iUyurzTZGA6GbT3NC-40">
          <mxGeometry relative="1" as="geometry" />
        </mxCell>
        <mxCell id="QQ5iUyurzTZGA6GbT3NC-42" value="Indexed video embeddings" style="rounded=1;whiteSpace=wrap;html=1;" parent="1" vertex="1">
          <mxGeometry x="240" y="840" width="120" height="60" as="geometry" />
        </mxCell>
        <mxCell id="jVAOY2Lbpxn42im7dIGs-3" style="edgeStyle=orthogonalEdgeStyle;rounded=0;orthogonalLoop=1;jettySize=auto;html=1;exitX=1;exitY=0.25;exitDx=0;exitDy=0;entryX=0;entryY=0.5;entryDx=0;entryDy=0;" edge="1" parent="1" source="jVAOY2Lbpxn42im7dIGs-1" target="QQ5iUyurzTZGA6GbT3NC-3">
          <mxGeometry relative="1" as="geometry" />
        </mxCell>
        <mxCell id="jVAOY2Lbpxn42im7dIGs-1" value="" style="swimlane;startSize=0;" vertex="1" parent="1">
          <mxGeometry x="240" y="400" width="160" height="280" as="geometry" />
        </mxCell>
        <mxCell id="QQ5iUyurzTZGA6GbT3NC-30" value="Relevant videos" style="rounded=1;whiteSpace=wrap;html=1;" parent="jVAOY2Lbpxn42im7dIGs-1" vertex="1">
          <mxGeometry x="40" y="40" width="80" height="40" as="geometry" />
        </mxCell>
        <mxCell id="QQ5iUyurzTZGA6GbT3NC-31" value="Popular videos" style="rounded=1;whiteSpace=wrap;html=1;" parent="jVAOY2Lbpxn42im7dIGs-1" vertex="1">
          <mxGeometry x="40" y="120" width="80" height="40" as="geometry" />
        </mxCell>
        <mxCell id="QQ5iUyurzTZGA6GbT3NC-32" value="Trending videos" style="rounded=1;whiteSpace=wrap;html=1;" parent="jVAOY2Lbpxn42im7dIGs-1" vertex="1">
          <mxGeometry x="40" y="200" width="80" height="40" as="geometry" />
        </mxCell>
        <mxCell id="jVAOY2Lbpxn42im7dIGs-7" value="candidate generation" style="text;html=1;strokeColor=none;fillColor=none;align=center;verticalAlign=middle;whiteSpace=wrap;rounded=0;" vertex="1" parent="jVAOY2Lbpxn42im7dIGs-1">
          <mxGeometry x="40" width="120" height="30" as="geometry" />
        </mxCell>
      </root>
    </mxGraphModel>
  </diagram>
</mxfile>
